<svg width="1024" height="1024" viewBox="0 0 1024 1024" fill="none" xmlns="http://www.w3.org/2000/svg">
  <defs>
    <linearGradient id="ringGrad" x1="188" y1="794" x2="826" y2="230" gradientUnits="userSpaceOnUse">
      <stop offset="0" stop-color="#7C3AED"/>
      <stop offset="0.46" stop-color="#2563EB"/>
      <stop offset="1" stop-color="#22D3EE"/>
    </linearGradient>
    <linearGradient id="leftFace" x1="359" y1="239" x2="521" y2="774" gradientUnits="userSpaceOnUse">
      <stop offset="0" stop-color="#A5B4FC"/>
      <stop offset="0.46" stop-color="#4F46E5"/>
      <stop offset="1" stop-color="#0EA5E9"/>
    </linearGradient>
    <linearGradient id="rightFace" x1="669" y1="239" x2="514" y2="772" gradientUnits="userSpaceOnUse">
      <stop offset="0" stop-color="#172554"/>
      <stop offset="0.52" stop-color="#3730A3"/>
      <stop offset="1" stop-color="#06B6D4"/>
    </linearGradient>
    <linearGradient id="centerFace" x1="512" y1="238" x2="512" y2="786" gradientUnits="userSpaceOnUse">
      <stop offset="0" stop-color="#EEF2FF" stop-opacity="0.92"/>
      <stop offset="0.14" stop-color="#818CF8" stop-opacity="0.72"/>
      <stop offset="0.48" stop-color="#312E81" stop-opacity="0.78"/>
      <stop offset="0.76" stop-color="#0EA5E9" stop-opacity="0.82"/>
      <stop offset="1" stop-color="#67E8F9" stop-opacity="0.95"/>
    </linearGradient>
    <radialGradient id="nebula" cx="0" cy="0" r="1" gradientUnits="userSpaceOnUse" gradientTransform="translate(512 535) rotate(72) scale(233 146)">
      <stop offset="0" stop-color="#FFFFFF" stop-opacity="0.95"/>
      <stop offset="0.14" stop-color="#22D3EE" stop-opacity="0.88"/>
      <stop offset="0.36" stop-color="#6366F1" stop-opacity="0.62"/>
      <stop offset="0.68" stop-color="#7C3AED" stop-opacity="0.38"/>
      <stop offset="1" stop-color="#020617" stop-opacity="0"/>
    </radialGradient>
    <linearGradient id="rayBlue" x1="111" y1="512" x2="379" y2="512" gradientUnits="userSpaceOnUse">
      <stop offset="0" stop-color="#60A5FA" stop-opacity="0"/>
      <stop offset="0.55" stop-color="#60A5FA" stop-opacity="0.22"/>
      <stop offset="1" stop-color="#FFFFFF" stop-opacity="0.92"/>
    </linearGradient>
    <linearGradient id="spectrum" x1="551" y1="503" x2="931" y2="503" gradientUnits="userSpaceOnUse">
      <stop offset="0" stop-color="#FFFFFF"/>
      <stop offset="0.16" stop-color="#22D3EE"/>
      <stop offset="0.36" stop-color="#2563EB"/>
      <stop offset="0.6" stop-color="#7C3AED"/>
      <stop offset="0.78" stop-color="#EC4899"/>
      <stop offset="1" stop-color="#FBBF24"/>
    </linearGradient>
    <linearGradient id="nodeGrad" x1="649" y1="444" x2="913" y2="583" gradientUnits="userSpaceOnUse">
      <stop offset="0" stop-color="#A78BFA"/>
      <stop offset="0.48" stop-color="#3B82F6"/>
      <stop offset="1" stop-color="#22D3EE"/>
    </linearGradient>
    <filter id="softGlow" x="-40%" y="-40%" width="180%" height="180%" color-interpolation-filters="sRGB">
      <feGaussianBlur stdDeviation="12" result="blur"/>
      <feColorMatrix in="blur" type="matrix" values="0 0 0 0 0.16 0 0 0 0 0.32 0 0 0 0 1 0 0 0 0.6 0" result="glow"/>
      <feBlend in="SourceGraphic" in2="glow" mode="screen"/>
    </filter>
    <filter id="tinyGlow" x="-80%" y="-80%" width="260%" height="260%" color-interpolation-filters="sRGB">
      <feGaussianBlur stdDeviation="4" result="blur"/>
      <feBlend in="SourceGraphic" in2="blur" mode="screen"/>
    </filter>
    <clipPath id="prismClip">
      <path d="M512 174L659 357V667L512 850L365 667V357L512 174Z"/>
    </clipPath>
  </defs>

  <rect width="1024" height="1024" rx="224" fill="#06112f"/>

  <!-- orbital prism halo -->
  <path d="M279 689C204 577 219 424 316 328C383 262 474 236 559 251" stroke="url(#ringGrad)" stroke-width="30" stroke-linecap="round" opacity="0.9"/>
  <path d="M675 284C778 335 836 450 811 561C793 644 736 715 659 750" stroke="url(#ringGrad)" stroke-width="30" stroke-linecap="round" opacity="0.78"/>
  <path d="M735 219L754 268L803 287L754 306L735 355L716 306L667 287L716 268L735 219Z" fill="#4F46E5" opacity="0.92"/>

  <!-- incoming nebula/data beam -->
  <path d="M111 421L386 509L111 603C194 553 282 529 386 509C281 489 194 466 111 421Z" fill="url(#rayBlue)"/>
  <g opacity="0.88">
    <rect x="171" y="390" width="20" height="20" rx="3" fill="#6366F1"/>
    <rect x="204" y="529" width="14" height="14" rx="3" fill="#22D3EE"/>
    <rect x="245" y="448" width="12" height="12" rx="2" fill="#60A5FA"/>
    <rect x="282" y="580" width="22" height="22" rx="4" fill="#2563EB" opacity="0.85"/>
    <rect x="327" y="406" width="14" height="14" rx="3" fill="#38BDF8" opacity="0.9"/>
    <circle cx="258" cy="508" r="4" fill="#7C3AED"/>
    <circle cx="312" cy="535" r="3" fill="#38BDF8"/>
    <circle cx="351" cy="480" r="3" fill="#60A5FA"/>
  </g>

  <!-- output spectrum fan -->
  <path d="M548 510L931 385L931 424L548 521V510Z" fill="url(#spectrum)" opacity="0.82"/>
  <path d="M548 512L931 457L931 489L548 524V512Z" fill="url(#spectrum)" opacity="0.72"/>
  <path d="M548 515L931 528L931 558L548 529V515Z" fill="url(#spectrum)" opacity="0.76"/>
  <path d="M548 519L931 611L931 647L548 532V519Z" fill="url(#spectrum)" opacity="0.58"/>

  <!-- structured information traces -->
  <g stroke="url(#nodeGrad)" stroke-width="11" stroke-linecap="round" opacity="0.94">
    <path d="M675 421H802L850 397"/>
    <path d="M652 462H826L882 449"/>
    <path d="M638 505H845L908 505"/>
    <path d="M652 548H826L882 567"/>
    <path d="M675 589H802L850 626"/>
  </g>
  <g fill="url(#nodeGrad)" filter="url(#tinyGlow)">
    <circle cx="850" cy="397" r="11"/>
    <circle cx="882" cy="449" r="10"/>
    <circle cx="908" cy="505" r="12"/>
    <circle cx="882" cy="567" r="10"/>
    <circle cx="850" cy="626" r="11"/>
  </g>

  <!-- prism body -->
  <g filter="url(#softGlow)">
    <path d="M512 174L365 357V667L512 850L512 174Z" fill="url(#leftFace)"/>
    <path d="M512 174L659 357V667L512 850L512 174Z" fill="url(#rightFace)"/>
    <path d="M512 293L659 357V667L512 747L365 667V357L512 293Z" fill="url(#centerFace)" opacity="0.78"/>

    <g clip-path="url(#prismClip)">
      <ellipse cx="512" cy="536" rx="238" ry="150" fill="url(#nebula)" opacity="0.95"/>
      <path d="M352 596C421 506 575 473 671 534" stroke="#A78BFA" stroke-width="9" stroke-linecap="round" opacity="0.45"/>
      <path d="M389 624C468 558 576 540 637 577" stroke="#22D3EE" stroke-width="7" stroke-linecap="round" opacity="0.58"/>
      <path d="M433 645C492 612 555 605 599 626" stroke="#FFFFFF" stroke-width="4" stroke-linecap="round" opacity="0.68"/>
      <circle cx="464" cy="471" r="5" fill="#FFFFFF" opacity="0.78"/>
      <circle cx="548" cy="434" r="4" fill="#BAE6FD" opacity="0.9"/>
      <circle cx="590" cy="513" r="3" fill="#FFFFFF" opacity="0.75"/>
      <circle cx="447" cy="585" r="3" fill="#E0E7FF" opacity="0.86"/>
      <circle cx="528" cy="633" r="4" fill="#FFFFFF" opacity="0.72"/>
      <circle cx="607" cy="611" r="3" fill="#A5F3FC" opacity="0.86"/>
    </g>

    <path d="M512 174L365 357V667L512 850L659 667V357L512 174Z" stroke="#FFFFFF" stroke-width="14" stroke-linejoin="round" opacity="0.95"/>
    <path d="M512 174V850" stroke="#FFFFFF" stroke-width="9" opacity="0.92"/>
    <path d="M365 357L512 293L659 357" stroke="#FFFFFF" stroke-width="9" stroke-linejoin="round" opacity="0.9"/>
    <path d="M365 667L512 747L659 667" stroke="#FFFFFF" stroke-width="9" stroke-linejoin="round" opacity="0.86"/>
  </g>

  <!-- bright prism interaction points -->
  <g filter="url(#tinyGlow)">
    <circle cx="365" cy="512" r="15" fill="#FFFFFF"/>
    <circle cx="548" cy="512" r="12" fill="#FFFFFF"/>
    <circle cx="512" cy="548" r="7" fill="#A5F3FC"/>
  </g>
</svg>
